<?xml version="1.0" encoding="UTF-8"?>
<!DOCTYPE svg PUBLIC "-//W3C//DTD SVG 1.1//EN" "http://www.w3.org/Graphics/SVG/1.1/DTD/svg11.dtd">
<!-- Creator: CorelDRAW X8 -->
<svg xmlns="http://www.w3.org/2000/svg" xml:space="preserve" width="100mm" height="39mm" version="1.1" style="shape-rendering:geometricPrecision; text-rendering:geometricPrecision; image-rendering:optimizeQuality; fill-rule:evenodd; clip-rule:evenodd"
viewBox="0 0 10000 3900"
 xmlns:xlink="http://www.w3.org/1999/xlink">
 <defs>
  <style type="text/css">
   <![CDATA[
    .fil2 {fill:#C3203F}
    .fil1 {fill:#2B2A29;fill-rule:nonzero}
    .fil0 {fill:#C3203F;fill-rule:nonzero}
   ]]>
  </style>
 </defs>
 <g id="Слой_x0020_1">
  <metadata id="CorelCorpID_0Corel-Layer"/>
  <g id="_1904622462608">
   <polygon class="fil0" points="1773,2254 525,2254 525,3643 938,3643 938,2564 1360,2564 1360,3643 1773,3643 "/>
   <polygon id="1" class="fil0" points="2576,3331 2576,3074 3069,3074 3069,2777 2576,2777 2576,2564 3143,2564 3143,2254 2163,2254 2163,3643 3173,3643 3173,3331 "/>
   <path id="2" class="fil0" d="M3930 3643l0 -442 183 0c161,0 287,-47 380,-137 95,-91 141,-205 141,-338 0,-130 -46,-242 -141,-333 -93,-92 -228,-139 -405,-139l-571 0 0 1389 413 0zm101 -1087c129,0 196,75 196,177 0,116 -80,173 -238,173l-61 0 0 -350 103 0z"/>
   <path id="3" class="fil0" d="M5882 2887c95,-70 144,-165 144,-281 0,-101 -38,-185 -112,-253 -74,-67 -171,-101 -293,-101l-687 0 0 1391 733 0c131,0 236,-40 319,-120 82,-82 124,-179 124,-291 0,-141 -76,-270 -228,-337l0 -8zm-166 307c0,74 -40,139 -158,139l-222 0 0 -274 211 0c103,0 169,53 169,135zm-211 -641c84,0 135,51 135,121 0,84 -72,120 -139,120l-167 0 0 -241 171 0z"/>
   <path id="4" class="fil0" d="M7181 3669c224,0 407,-68 550,-205 144,-137 215,-310 215,-516 0,-205 -71,-378 -213,-515 -141,-139 -322,-208 -548,-208 -223,0 -406,69 -552,208 -143,139 -215,310 -215,515 0,208 70,379 209,516 141,137 324,205 554,205zm7 -1107c107,0 193,38 257,112 63,73 95,164 95,274 0,113 -32,208 -97,282 -64,74 -148,112 -255,112 -108,0 -194,-38 -260,-112 -65,-74 -97,-169 -97,-282 0,-110 34,-201 99,-274 66,-74 152,-112 258,-112z"/>
   <path id="5" class="fil0" d="M9589 2218l-49 0 -822 736 -8 0 0 -700 -413 0 0 1421 46 0 826 -736 9 0 0 704 411 0 0 -1425zm-942 -423c8,210 124,371 350,371 111,0 198,-36 255,-110 59,-74 90,-162 97,-261l-167 0c-15,107 -82,179 -177,179 -103,0 -179,-59 -190,-179l-168 0z"/>
   <path class="fil1" d="M1581 1177c3,0 5,3 5,9 0,6 -2,9 -5,9 -34,0 -61,0 -81,-1l-112 -2 -126 2c-18,1 -42,1 -72,1 -3,0 -5,-3 -5,-9 0,-6 2,-9 5,-9 38,0 65,-2 82,-7 17,-5 29,-15 35,-29 6,-14 9,-36 9,-67l0 -640 -615 776c-3,4 -10,6 -21,6 -18,0 -27,-3 -27,-10l0 -826c0,-30 -3,-52 -9,-66 -6,-14 -17,-24 -33,-29 -17,-6 -43,-9 -79,-9 -3,0 -5,-3 -5,-9 0,-6 2,-9 5,-9l81 2c48,2 85,3 112,3 36,0 78,-1 126,-3l72 -2c3,0 5,3 5,9 0,6 -2,9 -5,9 -38,0 -65,3 -82,9 -17,5 -29,15 -35,29 -6,14 -9,36 -9,66l0 646 615 -777c3,-3 10,-4 21,-4 7,0 13,1 19,3 5,2 8,4 8,7l0 819c0,30 3,52 9,67 6,14 17,24 34,29 16,5 42,7 78,7z"/>
   <path id="1" class="fil1" d="M2259 242c45,0 92,4 140,12 49,8 87,19 115,33 9,3 15,7 17,11 3,5 4,12 5,23l18 195c0,3 -2,5 -7,6 -5,1 -8,0 -9,-4 -29,-78 -73,-138 -131,-179 -59,-41 -128,-61 -207,-61 -103,0 -185,36 -244,109 -59,73 -88,171 -88,294 0,92 16,177 48,254 33,77 78,138 135,182 58,45 122,68 193,68 135,0 237,-84 307,-252 1,-4 5,-5 10,-4 6,1 8,3 8,6l-22 191c-2,12 -4,20 -7,24 -2,3 -8,7 -17,11 -87,35 -180,52 -278,52 -122,0 -223,-24 -304,-72 -81,-49 -141,-110 -179,-185 -39,-75 -58,-153 -58,-234 0,-94 26,-178 77,-251 52,-73 120,-129 205,-169 85,-40 176,-60 273,-60z"/>
   <path id="2" class="fil1" d="M3634 1177c2,0 3,3 3,9 0,6 -1,9 -3,9l-218 0c-14,0 -26,-4 -36,-12 -11,-8 -29,-28 -54,-61 -25,-33 -67,-92 -127,-178l-27 -39c-40,-57 -69,-97 -88,-120 -18,-22 -37,-38 -57,-48 -20,-9 -47,-14 -80,-14l-6 0 0 351c0,30 3,52 9,67 6,14 17,24 33,29 16,5 42,7 78,7 3,0 5,3 5,9 0,6 -2,9 -5,9 -34,0 -61,0 -81,-1l-118 -2 -108 2c-19,1 -45,1 -78,1 -3,0 -5,-3 -5,-9 0,-6 2,-9 5,-9 36,0 62,-2 78,-7 17,-5 28,-15 34,-29 6,-15 9,-37 9,-67l0 -694c0,-30 -3,-52 -9,-66 -6,-14 -17,-24 -34,-29 -16,-6 -42,-9 -77,-9 -3,0 -4,-3 -4,-9 0,-6 1,-9 4,-9l78 2c44,2 80,3 107,3 32,0 72,-1 120,-3l79 -2c3,0 5,3 5,9 0,6 -2,9 -5,9 -35,0 -61,3 -77,9 -17,6 -28,17 -34,31 -6,15 -9,37 -9,67l0 315c27,-1 61,-2 101,-2l10 0 165 -228c42,-58 63,-104 63,-138 0,-36 -22,-54 -66,-54 -2,0 -3,-3 -3,-9 0,-6 1,-9 3,-9l67 2c42,2 80,3 114,3 37,0 76,-1 116,-3l61 -2c3,0 5,3 5,9 0,6 -2,9 -5,9 -47,0 -95,15 -145,45 -50,30 -96,71 -137,123l-201 254c34,3 63,11 86,24 23,13 46,32 68,59 23,26 56,71 100,133 52,72 91,124 116,156 26,32 53,57 81,77 28,19 60,29 94,30z"/>
   <path id="3" class="fil1" d="M4566 258c3,0 5,3 5,9 0,6 -2,9 -5,9 -28,0 -56,12 -84,36 -29,23 -52,55 -70,95l-263 576c-26,60 -45,106 -57,137 -11,31 -20,52 -27,61 -7,10 -17,14 -29,14l-266 0c-2,0 -3,-3 -3,-9 0,-6 1,-9 3,-9 68,0 133,-17 196,-53 62,-35 109,-84 140,-146l-330 -595c-22,-41 -41,-69 -58,-84 -16,-15 -39,-23 -68,-23 -2,0 -3,-3 -3,-9 0,-6 1,-9 3,-9l50 2c30,2 65,3 105,3 59,0 111,-1 157,-3 13,-1 30,-2 50,-2 3,0 4,3 4,9 0,6 -1,9 -4,9 -62,0 -93,16 -93,47 0,12 4,27 13,45l247 453 191 -416c10,-20 15,-38 15,-55 0,-23 -10,-41 -29,-54 -19,-13 -46,-20 -82,-20 -2,0 -3,-3 -3,-9 0,-6 1,-9 3,-9l66 2c36,2 69,3 99,3 20,0 42,-1 66,-3l61 -2z"/>
   <path id="4" class="fil1" d="M5187 242c45,0 92,4 140,12 49,8 87,19 115,33 9,3 15,7 17,11 3,5 4,12 5,23l18 195c0,3 -2,5 -7,6 -5,1 -8,0 -9,-4 -29,-78 -73,-138 -131,-179 -59,-41 -128,-61 -207,-61 -104,0 -185,36 -244,109 -59,73 -88,171 -88,294 0,92 16,177 48,254 33,77 78,138 135,182 58,45 122,68 193,68 135,0 237,-84 307,-252 1,-4 5,-5 10,-4 6,1 8,3 8,6l-22 191c-2,12 -4,20 -7,24 -2,3 -8,7 -17,11 -87,35 -180,52 -278,52 -122,0 -223,-24 -304,-72 -81,-49 -141,-110 -179,-185 -39,-75 -58,-153 -58,-234 0,-94 26,-178 77,-251 52,-73 120,-129 205,-169 85,-40 176,-60 273,-60z"/>
   <path id="5" class="fil1" d="M6190 242c45,0 92,4 140,12 49,8 87,19 115,33 9,3 15,7 17,11 3,5 4,12 5,23l18 195c0,3 -2,5 -7,6 -5,1 -8,0 -9,-4 -29,-78 -73,-138 -131,-179 -59,-41 -128,-61 -207,-61 -104,0 -185,36 -244,109 -59,73 -88,171 -88,294 0,92 16,177 48,254 33,77 78,138 135,182 58,45 122,68 193,68 135,0 237,-84 307,-252 1,-4 4,-5 10,-4 5,1 8,3 8,6l-22 191c-2,12 -5,20 -7,24 -3,3 -8,7 -17,11 -87,35 -180,52 -278,52 -122,0 -223,-24 -304,-72 -81,-49 -141,-110 -179,-185 -39,-75 -58,-153 -58,-234 0,-94 26,-178 77,-251 52,-73 120,-129 205,-169 85,-40 176,-60 273,-60z"/>
   <path id="6" class="fil1" d="M6881 290c-61,0 -111,19 -151,56 -39,38 -69,94 -90,170 0,2 -3,3 -9,3 -5,0 -8,-1 -8,-4 4,-39 9,-89 14,-151 5,-61 7,-108 7,-139 0,-5 3,-7 8,-7 6,0 9,2 9,7 0,22 28,33 84,33 86,3 186,5 301,5 59,0 121,-1 187,-3l102 -2c38,0 66,-2 84,-7 17,-5 28,-15 33,-30 1,-4 4,-6 9,-6 5,0 8,2 8,6 -3,31 -6,78 -9,141 -3,63 -5,114 -5,153 0,3 -3,4 -8,4 -6,0 -9,-1 -10,-4 -10,-77 -33,-134 -70,-170 -37,-37 -87,-55 -150,-55 -28,0 -49,2 -62,7 -14,5 -23,14 -27,27 -5,12 -7,32 -7,59l0 691c0,31 3,53 9,67 6,14 18,24 36,29 18,5 46,7 85,7 3,0 5,3 5,9 0,6 -2,9 -5,9 -35,0 -62,0 -82,-1l-123 -2 -117 2c-21,1 -50,1 -87,1 -2,0 -3,-3 -3,-9 0,-6 1,-9 3,-9 39,0 68,-2 86,-7 19,-5 31,-15 38,-29 6,-15 9,-37 9,-67l0 -694c0,-26 -2,-45 -7,-57 -5,-12 -14,-21 -27,-26 -13,-5 -33,-7 -60,-7z"/>
   <path id="7" class="fil1" d="M8214 669c82,9 147,37 196,83 49,46 74,103 74,171 0,52 -15,99 -43,141 -29,43 -68,76 -118,101 -51,24 -107,36 -169,36 -29,0 -63,-1 -101,-4 -13,-1 -29,-2 -49,-3 -20,-1 -43,-2 -68,-2l-107 2c-19,1 -45,1 -78,1 -3,0 -5,-3 -5,-9 0,-6 2,-9 5,-9 32,0 56,-2 72,-8 16,-5 27,-15 33,-29 7,-14 10,-36 10,-66l0 -694c0,-29 -3,-51 -10,-65 -6,-15 -17,-25 -33,-30 -15,-6 -39,-9 -71,-9 -2,0 -3,-3 -3,-9 0,-6 1,-9 3,-9l78 2c44,2 80,3 106,3 28,0 58,-2 89,-5 11,-1 24,-2 40,-3 15,-1 33,-1 53,-1 89,0 157,17 204,51 47,34 70,82 70,144 0,48 -15,91 -46,130 -31,38 -75,68 -132,90zm-122 -385c-32,0 -53,6 -65,19 -11,13 -17,40 -17,80l0 285 63 1c59,0 103,-19 133,-57 30,-39 45,-89 45,-150 0,-57 -13,-101 -40,-132 -27,-31 -67,-46 -119,-46zm38 883c135,0 202,-69 202,-208 0,-76 -19,-137 -59,-183 -39,-46 -97,-69 -173,-69 -36,0 -66,1 -90,3l0 364c0,23 3,41 9,54 6,13 17,23 34,29 17,7 43,10 77,10z"/>
   <path id="8" class="fil1" d="M9110 1213c-93,0 -175,-21 -248,-65 -72,-43 -128,-102 -168,-177 -39,-74 -59,-155 -59,-243 0,-103 26,-191 78,-265 52,-73 119,-129 200,-166 82,-37 165,-55 250,-55 95,0 178,22 250,67 72,44 127,103 166,176 38,73 58,150 58,232 0,91 -24,175 -72,251 -48,76 -113,136 -193,179 -80,44 -168,66 -262,66zm51 -36c60,0 114,-16 162,-48 47,-33 84,-80 112,-143 27,-63 41,-138 41,-225 0,-92 -15,-175 -46,-248 -30,-73 -73,-130 -130,-171 -56,-41 -123,-61 -199,-61 -97,0 -172,35 -225,104 -54,70 -80,166 -80,289 0,95 15,181 47,258 31,77 75,137 130,180 56,44 118,65 188,65z"/>
   <path class="fil1" d="M2340 1995c40,0 74,-10 101,-32 28,-21 41,-52 41,-92 0,-37 -12,-67 -38,-91 -25,-24 -62,-37 -110,-37l-118 0 0 -121 217 0 0 -40 -269 0 0 413 176 0zm-6 -211c56,0 98,31 98,86 0,55 -37,83 -88,83l-128 0 0 -169 118 0z"/>
   <path id="1" class="fil1" d="M2786 1995c39,0 72,-10 97,-32 26,-22 39,-53 39,-92 0,-37 -12,-67 -38,-91 -25,-24 -62,-37 -110,-37l-119 0 0 -161 -51 0 0 413 182 0zm-12 -211c55,0 97,31 97,86 0,41 -17,60 -41,72 -14,8 -40,11 -57,11 -8,1 -19,1 -32,1l-86 0 0 -170 119 0zm255 -202l-51 0 0 413 51 0 0 -413z"/>
   <polygon id="2" class="fil1" points="3446,1581 3131,1581 3131,1623 3263,1623 3263,1995 3314,1995 3314,1623 3446,1623 "/>
   <path id="3" class="fil1" d="M3730 1995c38,0 71,-11 97,-33 25,-22 38,-52 38,-91 0,-37 -12,-67 -38,-92 -25,-24 -62,-37 -110,-37l-118 0 0 -161 -51 0 0 414 182 0zm-12 -211c55,0 97,31 97,86 0,55 -37,83 -89,83l-127 0 0 -169 119 0z"/>
   <rect class="fil2" x="4255" y="1795" width="4042.8" height="28.2552"/>
   <rect class="fil2" x="525" y="1795" width="1248.48" height="28.2552"/>
  </g>
 </g>
</svg>
